<?xml version="1.0" encoding="UTF-8" standalone="no"?>
<svg width="44px" height="35px" viewBox="0 0 44 35" version="1.1" xmlns="http://www.w3.org/2000/svg" xmlns:xlink="http://www.w3.org/1999/xlink">
    <!-- Generator: Sketch 3.6.1 (26313) - http://www.bohemiancoding.com/sketch -->
    <title>Imported Layers</title>
    <desc>Created with Sketch.</desc>
    <defs>
        <linearGradient x1="0%" y1="38.8538089%" x2="70.1041254%" y2="60.1472903%" id="linearGradient-1">
            <stop stop-color="#000000" stop-opacity="0" offset="0%"></stop>
            <stop stop-color="#000000" offset="100%"></stop>
        </linearGradient>
        <linearGradient x1="100%" y1="100%" x2="24.7193203%" y2="6.99155799%" id="linearGradient-2">
            <stop stop-color="#000000" stop-opacity="0" offset="0%"></stop>
            <stop stop-color="#000000" offset="100%"></stop>
        </linearGradient>
        <linearGradient x1="100%" y1="0%" x2="8.78786237%" y2="74.8073044%" id="linearGradient-3">
            <stop stop-color="#000000" stop-opacity="0" offset="0%"></stop>
            <stop stop-color="#000000" offset="100%"></stop>
        </linearGradient>
    </defs>
    <g id="Page-1" stroke="none" stroke-width="1" fill="none" fill-rule="evenodd">
        <g id="Visual-2" transform="translate(-135.000000, -32.000000)">
            <g id="Header-Grayscale" transform="translate(134.000000, 32.000000)">
                <g id="Logo-+-Menu" transform="translate(1.000000, 0.000000)">
                    <g id="Imported-Layers" style="mix-blend-mode: luminosity;">
                        <path d="M23.7410596,0.0489536424 L3.73038411,34.7081325 L43.7514437,34.7081325 L23.7410596,0.0489536424 M8.71025166,31.7930596 L23.7410596,5.75875497 L38.806543,31.8530861 L8.67557616,31.8530861 L8.71025166,31.7930596" id="Fill-1" fill="#2C3E50"></path>
                        <path d="M3.7306755,34.7081325 L0.0428344371,18.8025695 L10.6957881,22.646596 L3.7306755,34.7081325" id="Fill-2" fill="#FC6E51"></path>
                        <path d="M0.0428344371,18.8025695 L3.7306755,34.7081325 L10.6957881,22.646596 L10.6946225,22.6460132 L0.0428344371,18.8025695" id="Fill-3" fill="url(#linearGradient-1)" style="mix-blend-mode: soft-light;"></path>
                        <path d="M43.7488212,34.7075497 L33.641351,17.1967152 L38.5384636,14.3297219 L43.7488212,34.7075497" id="Fill-4" fill="#48CFAD"></path>
                        <path d="M38.5384636,14.3297219 L33.641351,17.1967152 L43.7488212,34.7075497 L38.5384636,14.3297219" id="Fill-5" fill="url(#linearGradient-2)" style="mix-blend-mode: soft-light;"></path>
                        <path d="M13.5301457,23.4447152 L8.71025166,31.7930596 L38.5384636,14.3297219 L13.5301457,23.4447152" id="Fill-6" fill="#5D9CEC"></path>
                        <path d="M31.177351,18.6393907 L31.177351,18.6393907 L8.71025166,31.7930596 L31.177351,18.6393907" id="Fill-7" fill="#434A54"></path>
                        <path d="M13.5301457,23.4447152 L13.5301457,23.4447152 L8.71025166,31.7930596 L13.5301457,23.4447152 M33.641351,17.1967152 L33.641351,17.1967152 L31.177351,18.6393907 L33.641351,17.1967152 M33.125298,16.3027285 L30.4016689,17.2954967 L33.125298,16.3027285" id="Fill-8" fill="#2B3340"></path>
                        <path d="M38.5384636,14.3297219 L38.5384636,14.3297219 L13.5301457,23.4447152 L8.71025166,31.7930596 L38.5384636,14.3297219" id="Fill-9" fill="url(#linearGradient-3)" style="mix-blend-mode: soft-light;"></path>
                    </g>
                </g>
            </g>
        </g>
    </g>
</svg>