<?xml version="1.0" encoding="UTF-8" standalone="no"?>
<svg width="104px" height="123px" viewBox="0 0 104 123" version="1.1" xmlns="http://www.w3.org/2000/svg" xmlns:xlink="http://www.w3.org/1999/xlink">
    <!-- Generator: Sketch 3.6.1 (26313) - http://www.bohemiancoding.com/sketch -->
    <title>Group 4</title>
    <desc>Created with Sketch.</desc>
    <defs></defs>
    <g id="Visual-1" stroke="none" stroke-width="1" fill="none" fill-rule="evenodd">
        <g id="Process" transform="translate(-391.000000, -1465.000000)">
            <g id="Develope" transform="translate(0.000000, 1076.000000)">
                <g id="6-copy" transform="translate(257.000000, 390.000000)">
                    <g id="Group-4" transform="translate(116.000000, 0.000000)">
                        <g id="Group-2" transform="translate(22.000000, 24.000000)">
                            <path d="M76.9476601,57.5495 C76.9476601,65.367 70.567732,71.7045 62.6996405,71.7045 C54.8305425,71.7045 48.4516209,65.367 48.4516209,57.5495 C48.4516209,49.732 54.8305425,43.394 62.6996405,43.394 C70.567732,43.394 76.9476601,49.732 76.9476601,57.5495" id="Fill-227" fill="#3EC7A2"></path>
                            <path d="M57.5557386,62.4645 L52.6091176,57.5495 L57.5557386,52.635 L59.3347908,54.4025 L56.1677255,57.5495 L59.3352941,60.697 L57.5557386,62.4645" id="Fill-228" fill="#FFFFFF"></path>
                            <path d="M67.8430392,62.4645 L66.0634837,60.697 L69.2310523,57.5495 L66.0639869,54.4025 L67.8430392,52.635 L72.7896601,57.5495 L67.8430392,62.4645" id="Fill-229" fill="#FFFFFF"></path>
                            <path d="M62.0564641,64.385 L59.6352418,63.702 L63.342817,50.715 L65.7640392,51.3975 L62.0564641,64.385" id="Fill-230" fill="#FFFFFF"></path>
                            <path d="M30.8790131,28.042 L37.6640719,28.042 L37.6640719,25.542 L30.8790131,25.542 L30.8790131,28.042 Z" id="Fill-231" fill="#2C3E50"></path>
                            <path d="M37.6645752,36.6155 L44.9609542,36.6155 L44.9609542,34.1155 L37.6645752,34.1155 L37.6645752,36.6155 Z" id="Fill-232" fill="#2C3E50"></path>
                            <path d="M37.6645752,40.901 L44.9609542,40.901 L44.9609542,38.401 L37.6645752,38.401 L37.6645752,40.901 Z" id="Fill-233" fill="#2C3E50"></path>
                            <path d="M37.6645752,53.76 L44.9609542,53.76 L44.9609542,51.26 L37.6645752,51.26 L37.6645752,53.76 Z" id="Fill-234" fill="#2C3E50"></path>
                            <path d="M37.6645752,58.0455 L44.9609542,58.0455 L44.9609542,55.5455 L37.6645752,55.5455 L37.6645752,58.0455 Z" id="Fill-235" fill="#2C3E50"></path>
                            <path d="M30.8790131,32.3275 L44.9609542,32.3275 L44.9609542,29.8275 L30.8790131,29.8275 L30.8790131,32.3275 Z" id="Fill-236" fill="#2C3E50"></path>
                            <path d="M30.8790131,45.188 L37.6640719,45.188 L37.6640719,42.688 L30.8790131,42.688 L30.8790131,45.188 Z" id="Fill-237" fill="#2C3E50"></path>
                            <path d="M30.8790131,49.473 L44.9609542,49.473 L44.9609542,46.973 L30.8790131,46.973 L30.8790131,49.473 Z" id="Fill-238" fill="#2C3E50"></path>
                            <path d="M47.8154902,36.6155 L55.1138824,36.6155 L55.1138824,34.1155 L47.8154902,34.1155 L47.8154902,36.6155 Z" id="Fill-239" fill="#2C3E50"></path>
                            <path d="M47.8154902,40.901 L61.8989412,40.901 L61.8989412,38.401 L47.8154902,38.401 L47.8154902,40.901 Z" id="Fill-240" fill="#2C3E50"></path>
                            <path d="M47.8154902,32.3275 L55.1138824,32.3275 L55.1138824,29.8275 L47.8154902,29.8275 L47.8154902,32.3275 Z" id="Fill-241" fill="#2C3E50"></path>
                            <path d="M26.2559935,19.375 L66.5229673,19.375 L66.5229673,14.375 L26.2559935,14.375 L26.2559935,19.375 Z M23.7396536,21.875 L69.0393072,21.875 L69.0393072,11.875 L23.7396536,11.875 L23.7396536,21.875 Z" id="Fill-242" fill="#2C3E50"></path>
                            <path d="M28.7723333,18.125 L31.2891765,18.125 L31.2891765,15.625 L28.7723333,15.625 L28.7723333,18.125 Z" id="Fill-243" fill="#2C3E50"></path>
                            <path d="M33.8050131,18.125 L36.3218562,18.125 L36.3218562,15.625 L33.8050131,15.625 L33.8050131,18.125 Z" id="Fill-244" fill="#2C3E50"></path>
                            <path d="M38.8371895,18.125 L41.3545359,18.125 L41.3545359,15.625 L38.8371895,15.625 L38.8371895,18.125 Z" id="Fill-245" fill="#2C3E50"></path>
                            <path d="M44.9609542,64.2125 L23.7396536,64.2125 L23.7396536,19.375 L69.0393072,19.375 L69.0393072,40.8305 L66.5229673,40.8305 L66.5229673,21.875 L26.2559935,21.875 L26.2559935,61.7125 L44.9609542,61.7125 L44.9609542,64.2125" id="Fill-246" fill="#2C3E50"></path>
                            <path d="M12.6833595,63.8775 C11.5439608,63.8775 10.6174444,64.7985 10.6174444,65.93 C10.6174444,67.0625 11.5439608,67.9835 12.6833595,67.9835 C13.8227582,67.9835 14.7497778,67.0625 14.7497778,65.93 C14.7497778,64.7985 13.8227582,63.8775 12.6833595,63.8775 L12.6833595,63.8775 Z M12.6833595,70.4835 C10.156451,70.4835 8.10110458,68.441 8.10110458,65.93 C8.10110458,63.42 10.156451,61.3775 12.6833595,61.3775 C15.210268,61.3775 17.2661176,63.42 17.2661176,65.93 C17.2661176,68.441 15.210268,70.4835 12.6833595,70.4835 L12.6833595,70.4835 Z" id="Fill-247" fill="#2C3E50"></path>
                            <path d="M18.5398889,70.4835 L21.0562288,70.4835 L21.0562288,61.3775 L18.5398889,61.3775 L18.5398889,70.4835 Z" id="Fill-248" fill="#2C3E50"></path>
                            <path d="M59.4107843,2.5425 C58.2718889,2.5425 57.3448693,3.4635 57.3448693,4.5955 C57.3448693,5.7275 58.2718889,6.648 59.4107843,6.648 C60.550183,6.648 61.4772026,5.7275 61.4772026,4.5955 C61.4772026,3.4635 60.550183,2.5425 59.4107843,2.5425 L59.4107843,2.5425 Z M59.4107843,9.148 C56.8838758,9.148 54.8285294,7.106 54.8285294,4.5955 C54.8285294,2.085 56.8838758,0.0425 59.4107843,0.0425 C61.9376928,0.0425 63.9935425,2.085 63.9935425,4.5955 C63.9935425,7.106 61.9376928,9.148 59.4107843,9.148 L59.4107843,9.148 Z" id="Fill-249" fill="#2C3E50"></path>
                            <path d="M51.0389216,9.148 L53.5552614,9.148 L53.5552614,0.0425 L51.0389216,0.0425 L51.0389216,9.148 Z" id="Fill-250" fill="#2C3E50"></path>
                            <path d="M47.2488105,9.148 L49.7651503,9.148 L49.7651503,0.0425 L47.2488105,0.0425 L47.2488105,9.148 Z" id="Fill-251" fill="#2C3E50"></path>
                            <path d="M16.6546471,48.194 L15.3964771,48.194 L15.3964771,45.694 L16.6546471,45.694 C16.9525817,45.694 17.232902,45.5785 17.443268,45.369 C17.6551438,45.1585 17.7708954,44.8805 17.7708954,44.5845 L17.7708954,35.148 C17.7708954,34.8515 17.6551438,34.573 17.4437712,34.363 C17.2334052,34.154 16.9525817,34.0385 16.6546471,34.0385 L15.3964771,34.0385 L15.3964771,31.5385 L16.6546471,31.5385 C17.6244444,31.5385 18.536366,31.9135 19.2223203,32.5945 C19.9097843,33.277 20.2872353,34.1835 20.2872353,35.148 L20.2872353,44.5845 C20.2872353,45.5485 19.9097843,46.4545 19.2228235,47.136 C18.5378758,47.818 17.6249477,48.194 16.6546471,48.194" id="Fill-252" fill="#2C3E50"></path>
                            <path d="M5.08954902,48.194 L3.83137908,48.194 C2.86107843,48.194 1.94915686,47.8185 1.26269935,47.136 C0.576745098,46.453 0.199294118,45.5475 0.199294118,44.5845 L0.199294118,35.148 C0.199294118,34.1845 0.576745098,33.2785 1.26169281,32.596 C1.9501634,31.9135 2.86208497,31.5385 3.83137908,31.5385 L5.08954902,31.5385 L5.08954902,34.0385 L3.83137908,34.0385 C3.53344444,34.0385 3.25211765,34.154 3.04124837,34.364 C2.83138562,34.572 2.71513072,34.8515 2.71513072,35.148 L2.71513072,44.5845 C2.71513072,44.8805 2.83138562,45.159 3.04275817,45.3695 C3.25312418,45.578 3.53344444,45.694 3.83137908,45.694 L5.08954902,45.694 L5.08954902,48.194" id="Fill-253" fill="#2C3E50"></path>
                            <path d="M4.21788889,41.116 L6.73473203,41.116 L6.73473203,38.616 L4.21788889,38.616 L4.21788889,41.116 Z" id="Fill-254" fill="#2C3E50"></path>
                            <path d="M8.74730065,41.116 L11.2641438,41.116 L11.2641438,38.616 L8.74730065,38.616 L8.74730065,41.116 Z" id="Fill-255" fill="#2C3E50"></path>
                            <path d="M13.2762092,41.116 L15.7935556,41.116 L15.7935556,38.616 L13.2762092,38.616 L13.2762092,41.116 Z" id="Fill-256" fill="#2C3E50"></path>
                        </g>
                        <path d="M60,120 C93.137085,120 120,93.137085 120,60 C120,26.862915 93.137085,0 60,0 C26.862915,0 0,26.862915 0,60 C0,93.137085 26.862915,120 60,120 Z" id="Oval-17" stroke="#BDC3C7" stroke-width="3" stroke-linejoin="round" stroke-dasharray="95,2000"></path>
                        <path d="M60,120 C93.137085,120 120,93.137085 120,60 C120,26.862915 93.137085,0 60,0 C26.862915,0 0,26.862915 0,60 C0,93.137085 26.862915,120 60,120 Z" id="Oval-17-Copy" stroke="#BDC3C7" stroke-width="2" stroke-linejoin="round" stroke-dasharray="45,2000" transform="translate(60.000000, 60.000000) scale(-1, -1) translate(-60.000000, -60.000000) "></path>
                    </g>
                </g>
            </g>
        </g>
    </g>
</svg>