<?xml version="1.0" encoding="UTF-8" standalone="no"?>
<svg width="98px" height="94px" viewBox="0 0 98 94" version="1.1" xmlns="http://www.w3.org/2000/svg" xmlns:xlink="http://www.w3.org/1999/xlink">
    <!-- Generator: Sketch 3.6.1 (26313) - http://www.bohemiancoding.com/sketch -->
    <title>50%</title>
    <desc>Created with Sketch.</desc>
    <defs></defs>
    <g id="Visual-1" stroke="none" stroke-width="1" fill="none" fill-rule="evenodd">
        <g id="Process" transform="translate(-764.000000, -185.000000)">
            <g id="1" transform="translate(591.000000, 157.000000)">
                <g id="50%" transform="translate(149.000000, 0.000000)">
                    <path d="M24.148,74.57 L60.448,56.423 L96.7475,74.57 L60.448,92.7195 L24.148,74.57" id="Fill-183" fill="#F93922"></path>
                    <path d="M38.912,74.57 L60.448,85.3385 L81.9845,74.57 L60.448,63.8045 L38.912,74.57 L38.912,74.57 Z M60.448,88.1335 L33.3215,74.5695 L60.448,61.01 L87.575,74.5695 L60.448,88.1335 L60.448,88.1335 Z" id="Fill-184" fill="#2C3E50"></path>
                    <path d="M59.198,39.785 L61.698,39.785 L61.698,37.4065 L59.198,37.4065 L59.198,39.785 Z M59.198,44.5435 L61.698,44.5435 L61.698,42.164 L59.198,42.164 L59.198,44.5435 Z M59.198,49.3015 L61.698,49.3015 L61.698,46.9225 L59.198,46.9225 L59.198,49.3015 Z M59.198,54.059 L61.698,54.059 L61.698,51.68 L59.198,51.68 L59.198,54.059 Z M59.198,58.8175 L61.698,58.8175 L61.698,56.438 L59.198,56.438 L59.198,58.8175 Z M59.198,68.333 L61.698,68.333 L61.698,65.954 L59.198,65.954 L59.198,68.333 Z M59.198,73.0915 L61.698,73.0915 L61.698,70.712 L59.198,70.712 L59.198,73.0915 Z M59.198,77.849 L61.698,77.849 L61.698,75.47 L59.198,75.47 L59.198,77.849 Z M59.198,82.607 L61.698,82.607 L61.698,80.228 L59.198,80.228 L59.198,82.607 Z" id="Fill-185" fill="#2C3E50"></path>
                    <path d="M85.2,75.6995 L60.448,33.2585 L35.6965,75.6995 L33.537,74.44 L60.448,28.296 L87.3595,74.44 L85.2,75.6995" id="Fill-186" fill="#2C3E50"></path>
                    <path d="M60,120 C93.137085,120 120,93.137085 120,60 C120,26.862915 93.137085,0 60,0 C26.862915,0 0,26.862915 0,60 C0,93.137085 26.862915,120 60,120 Z" id="Oval-17" stroke="#BDC3C7" stroke-width="3" stroke-linejoin="round" stroke-dasharray="95,2000"></path>
                </g>
            </g>
        </g>
    </g>
</svg>