<?xml version="1.0" encoding="UTF-8" standalone="no"?>
<svg width="104px" height="123px" viewBox="0 0 104 123" version="1.1" xmlns="http://www.w3.org/2000/svg" xmlns:xlink="http://www.w3.org/1999/xlink">
    <!-- Generator: Sketch 3.6.1 (26313) - http://www.bohemiancoding.com/sketch -->
    <title>Group 2</title>
    <desc>Created with Sketch.</desc>
    <defs></defs>
    <g id="Visual-1" stroke="none" stroke-width="1" fill="none" fill-rule="evenodd">
        <g id="Process" transform="translate(-556.000000, -554.000000)">
            <g id="Design" transform="translate(0.000000, 261.000000)">
                <g id="2" transform="translate(459.000000, 294.000000)">
                    <g id="Group-2" transform="translate(79.000000, 0.000000)">
                        <path d="M52.9555155,78.7852695 L68.4440619,78.7852695 C68.7714021,73.8933191 70.9976186,69.271773 74.6645361,65.9508865 L74.7140412,65.9065745 C74.9186289,65.7232837 75.1242268,65.5394894 75.3283093,65.3682837 C79.4993711,61.559461 82.0155464,56.2656809 82.3459175,50.6823617 L39.0546701,50.6823617 C39.3850412,56.2651773 41.9002062,61.559461 46.0697526,65.3677801 C46.2253402,65.4981986 46.3834536,65.6356667 46.5435876,65.7756525 L46.724433,65.9327589 C50.4044845,69.2788227 52.6276701,73.9003688 52.9555155,78.7852695 L52.9555155,78.7852695 Z M70.9274021,81.303 L50.4716701,81.303 L50.4716701,80.0441348 C50.4716701,75.4069787 48.4934845,70.9490851 45.0447938,67.8124965 L44.8801134,67.6699929 C44.7275567,67.5370567 44.5770206,67.4051277 44.4285052,67.2817589 L44.3860722,67.245 C39.3688763,62.6738085 36.4915155,56.1780638 36.4915155,49.4234965 L36.4915155,48.1646312 L84.908567,48.1646312 L84.908567,49.4234965 C84.908567,56.1785674 82.030701,62.6738085 77.0124948,67.245 L76.9710722,67.2807518 C76.7826495,67.4378582 76.5927113,67.6085603 76.4032784,67.7782553 L76.3583196,67.818539 C72.9086186,70.942539 70.9274021,75.4004326 70.9274021,80.0441348 L70.9274021,81.303 L70.9274021,81.303 Z" id="Fill-187" fill="#2C3E50"></path>
                        <path d="M68.4016289,89.6734468 L70.9274021,89.6734468 L70.9274021,80.0441348 L68.4016289,80.0441348 L68.4016289,89.6734468 Z" id="Fill-188" fill="#2C3E50"></path>
                        <path d="M50.4716701,89.6734468 L52.9974433,89.6734468 L52.9974433,80.0441348 L50.4716701,80.0441348 L50.4716701,89.6734468 Z" id="Fill-189" fill="#2C3E50"></path>
                        <path d="M48.6253299,81.303 L72.7747526,81.303 L72.7747526,78.7852695 L48.6253299,78.7852695 L48.6253299,81.303 Z" id="Fill-190" fill="#2C3E50"></path>
                        <path d="M48.6253299,86.1184113 L72.7747526,86.1184113 L72.7747526,83.6006809 L48.6253299,83.6006809 L48.6253299,86.1184113 Z" id="Fill-191" fill="#2C3E50"></path>
                        <path d="M48.6253299,90.9323121 L72.7747526,90.9323121 L72.7747526,88.4145816 L48.6253299,88.4145816 L48.6253299,90.9323121 Z" id="Fill-192" fill="#2C3E50"></path>
                        <path d="M55.3332784,95.7467163 L66.066299,95.7467163 L66.066299,93.2289858 L55.3332784,93.2289858 L55.3332784,95.7467163 Z" id="Fill-193" fill="#2C3E50"></path>
                        <path d="M59.4371546,80.0441348 L61.9629278,80.0441348 L61.9629278,64.7348227 L59.4371546,64.7348227 L59.4371546,80.0441348 Z" id="Fill-194" fill="#2C3E50"></path>
                        <path d="M60.7000412,66.7011702 L53.176268,57.7012908 L55.116567,56.0894397 L60.7000412,62.7684752 L66.2835155,56.0894397 L68.2238144,57.7012908 L60.7000412,66.7011702" id="Fill-195" fill="#2C3E50"></path>
                        <path d="M81.0385773,42.5787943 C82.5196907,40.8234326 82.4348247,38.1999574 80.7779175,36.5468156 C79.9484536,35.721 78.8744948,35.2899645 77.7874021,35.2466596 L77.7909381,35.2431348 C77.8641856,34.9264043 77.9040928,34.5945674 77.9040928,34.2536667 C77.9040928,31.7852837 75.8955979,29.784695 73.4198351,29.784695 C72.8146598,29.784695 72.2362577,29.904539 71.7108969,30.1220709 L71.7073608,30.1250922 C71.3072784,28.0655887 69.493268,26.5091277 67.311,26.5091277 C64.834732,26.5091277 62.825732,28.5117305 62.825732,30.9801135 L62.825732,49.4234965 L82.6626495,49.4234965 C83.2764124,48.6576028 83.6456804,47.6872695 83.6456804,46.6338511 C83.6456804,44.8356879 82.5767732,43.2882908 81.0385773,42.5787943" id="Fill-196" fill="#4988E6"></path>
                        <path d="M40.361,42.5787943 C38.8798866,40.8234326 38.9647526,38.1999574 40.6216598,36.5468156 C41.4511237,35.721 42.5250825,35.2899645 43.6121753,35.2466596 L43.6086392,35.2431348 C43.5353918,34.9264043 43.4954845,34.5945674 43.4954845,34.2536667 C43.4954845,31.7852837 45.5039794,29.784695 47.9797423,29.784695 C48.5849175,29.784695 49.1633196,29.904539 49.6886804,30.1220709 L49.6922165,30.1250922 C50.092299,28.0655887 51.9063093,26.5091277 54.0885773,26.5091277 C56.5648454,26.5091277 58.5733402,28.5117305 58.5733402,30.9801135 L58.5733402,49.4234965 L38.7369278,49.4234965 C38.1231649,48.6576028 37.7538969,47.6872695 37.7538969,46.6338511 C37.7538969,44.8356879 38.8228041,43.2882908 40.361,42.5787943" id="Fill-197" fill="#4988E6"></path>
                        <path d="M83.2698454,50.6823617 L61.5628454,50.6823617 L61.5628454,30.9801135 C61.5628454,27.8208652 64.1416598,25.2502624 67.311,25.2502624 C70.4773093,25.2502624 73.0535979,27.8208652 73.0535979,30.9801135 C73.0535979,34.1388582 70.4773093,36.7084539 67.311,36.7084539 L67.311,34.1907234 C69.0845979,34.1907234 70.5278247,32.7505816 70.5278247,30.9801135 C70.5278247,29.2086383 69.0845979,27.7679929 67.311,27.7679929 C65.5343711,27.7679929 64.0886186,29.2086383 64.0886186,30.9801135 L64.0886186,48.1646312 L81.9923093,48.1646312 C82.249433,47.6968369 82.3827938,47.1766738 82.3827938,46.6338511 C82.3827938,44.863383 80.9375464,43.4227376 79.1604124,43.4227376 L79.1604124,40.9050071 C82.3302577,40.9050071 84.908567,43.4751064 84.908567,46.6338511 C84.908567,47.9259504 84.4615052,49.1958936 83.6492165,50.2090284 L83.2698454,50.6823617" id="Fill-198" fill="#2C3E50"></path>
                        <path d="M69.5523711,45.6740922 L69.5523711,43.1563617 C71.3274845,43.1563617 72.7717216,41.717227 72.7717216,39.947766 L75.2974948,39.947766 C75.2974948,43.1055035 72.7201959,45.6740922 69.5523711,45.6740922" id="Fill-199" fill="#2C3E50"></path>
                        <path d="M79.0209897,35.5266312 L76.5603814,34.9591348 C76.6139278,34.7285106 76.6412062,34.4913404 76.6412062,34.2536667 C76.6412062,32.4837021 75.1959588,31.0435603 73.4198351,31.0435603 C72.9934845,31.0435603 72.5817835,31.1251348 72.1953402,31.2847589 L71.2269588,28.959383 C71.9220515,28.6718582 72.6595773,28.5258298 73.4198351,28.5258298 C76.5886701,28.5258298 79.1669794,31.0954255 79.1669794,34.2536667 C79.1669794,34.6821844 79.1174742,35.1101986 79.0209897,35.5266312" id="Fill-200" fill="#2C3E50"></path>
                        <path d="M81.6700206,43.7575957 L79.884299,41.9770567 C81.1396082,40.7257447 81.1396082,38.6894043 79.8848041,37.4365816 C78.6284845,36.1852695 76.5846289,36.1852695 75.3298247,37.4375887 L73.5435979,35.6575532 C75.7834536,33.4243262 79.4296598,33.4233191 81.6705258,35.6565461 C83.9103814,37.8912837 83.9098763,41.5253759 81.6700206,43.7575957" id="Fill-201" fill="#2C3E50"></path>
                        <path d="M59.8362268,50.6823617 L38.1307423,50.6823617 L37.7513711,50.2095319 C36.9385773,49.1969007 36.4915155,47.9269574 36.4915155,46.6338511 C36.4915155,43.4751064 39.0698247,40.9050071 42.2396701,40.9050071 L42.2396701,43.4227376 C40.4625361,43.4227376 39.0172887,44.863383 39.0172887,46.6338511 C39.0172887,47.1771773 39.1506495,47.6973404 39.4077732,48.1646312 L57.3104536,48.1646312 L57.3104536,30.9801135 C57.3104536,29.2086383 55.8652062,27.7679929 54.0885773,27.7679929 C52.3149794,27.7679929 50.8722577,29.2086383 50.8722577,30.9801135 C50.8722577,32.7505816 52.3149794,34.1907234 54.0885773,34.1907234 L54.0885773,36.7084539 C50.922268,36.7084539 48.3464845,34.1388582 48.3464845,30.9801135 C48.3464845,27.8208652 50.922268,25.2502624 54.0885773,25.2502624 C57.2579175,25.2502624 59.8362268,27.8208652 59.8362268,30.9801135 L59.8362268,50.6823617" id="Fill-202" fill="#2C3E50"></path>
                        <path d="M51.8477113,45.6740922 C48.6798866,45.6740922 46.1020825,43.1055035 46.1020825,39.947766 L48.6278557,39.947766 C48.6278557,41.717227 50.0720928,43.1563617 51.8477113,43.1563617 L51.8477113,45.6740922" id="Fill-203" fill="#2C3E50"></path>
                        <path d="M42.3780825,35.5251206 C42.2821031,35.1081844 42.2331031,34.6806738 42.2331031,34.2536667 C42.2331031,31.0954255 44.8114124,28.5258298 47.9802474,28.5258298 C48.7394948,28.5258298 49.4770206,28.6718582 50.1726186,28.9588794 L49.2062577,31.2847589 C48.818299,31.1251348 48.4060928,31.0435603 47.9802474,31.0435603 C46.2041237,31.0435603 44.7588763,32.4837021 44.7588763,34.2536667 C44.7588763,34.4913404 44.7861546,34.7290142 44.839701,34.9611489 L42.3780825,35.5251206" id="Fill-204" fill="#2C3E50"></path>
                        <path d="M39.7295567,43.7575957 C37.4891959,41.5248723 37.4886907,37.8912837 39.7290515,35.6570496 C41.9704227,33.4238227 45.6161237,33.4243262 47.8559794,35.6575532 L46.0697526,37.4375887 C44.8149485,36.1862766 42.7715979,36.185773 41.5147732,37.4370851 C40.2599691,38.6894043 40.2599691,40.7257447 41.5152784,41.9770567 L39.7295567,43.7575957" id="Fill-205" fill="#2C3E50"></path>
                        <path d="M60,120 C93.137085,120 120,93.137085 120,60 C120,26.862915 93.137085,0 60,0 C26.862915,0 0,26.862915 0,60 C0,93.137085 26.862915,120 60,120 Z" id="Oval-17" stroke="#BDC3C7" stroke-width="3" stroke-linejoin="round" stroke-dasharray="95,2000"></path>
                        <path d="M60,120 C93.137085,120 120,93.137085 120,60 C120,26.862915 93.137085,0 60,0 C26.862915,0 0,26.862915 0,60 C0,93.137085 26.862915,120 60,120 Z" id="Oval-17-Copy" stroke="#BDC3C7" stroke-width="2" stroke-linejoin="round" stroke-dasharray="45,2000" transform="translate(60.000000, 60.000000) scale(-1, -1) translate(-60.000000, -60.000000) "></path>
                    </g>
                </g>
            </g>
        </g>
    </g>
</svg>