<?xml version="1.0" encoding="UTF-8" standalone="no"?>
<svg width="104px" height="123px" viewBox="0 0 104 123" version="1.1" xmlns="http://www.w3.org/2000/svg" xmlns:xlink="http://www.w3.org/1999/xlink">
    <!-- Generator: Sketch 3.6.1 (26313) - http://www.bohemiancoding.com/sketch -->
    <title>Group 8</title>
    <desc>Created with Sketch.</desc>
    <defs></defs>
    <g id="Visual-1" stroke="none" stroke-width="1" fill="none" fill-rule="evenodd">
        <g id="Process" transform="translate(-391.000000, -1780.000000)">
            <g id="Develope" transform="translate(0.000000, 1076.000000)">
                <g id="4" transform="translate(283.000000, 705.000000)">
                    <g id="Group-8" transform="translate(90.000000, 0.000000)">
                        <path d="M66.102,75.0193007 L82.0495,75.0193007 L82.0495,65.9261538 L66.102,65.9261538 L66.102,75.0193007 Z M63.602,77.5367832 L84.5495,77.5367832 L84.5495,63.4086713 L63.602,63.4086713 L63.602,77.5367832 Z" id="Fill-414" fill="#2C3E50"></path>
                        <path d="M75.3255,63.4086713 L91.273,63.4086713 L91.273,54.3155245 L75.3255,54.3155245 L75.3255,63.4086713 Z M72.8255,65.9261538 L93.773,65.9261538 L93.773,51.798042 L72.8255,51.798042 L72.8255,65.9261538 Z" id="Fill-415" fill="#2C3E50"></path>
                        <path d="M37.847,63.4086713 L53.7945,63.4086713 L53.7945,54.3155245 L37.847,54.3155245 L37.847,63.4086713 Z M35.347,65.9261538 L56.2945,65.9261538 L56.2945,51.798042 L35.347,51.798042 L35.347,65.9261538 Z" id="Fill-416" fill="#2C3E50"></path>
                        <path d="M28.6225,75.0193007 L44.571,75.0193007 L44.571,65.9261538 L28.6225,65.9261538 L28.6225,75.0193007 Z M26.1225,77.5367832 L47.071,77.5367832 L47.071,63.4086713 L26.1225,63.4086713 L26.1225,77.5367832 Z" id="Fill-417" fill="#2C3E50"></path>
                        <path d="M66.102,63.4086713 L72.8255,63.4086713 L72.8255,54.3155245 L66.102,54.3155245 L66.102,63.4086713 Z M63.602,65.9261538 L75.3255,65.9261538 L75.3255,51.798042 L63.602,51.798042 L63.602,65.9261538 Z" id="Fill-418" fill="#2C3E50"></path>
                        <path d="M47.071,75.0193007 L53.7945,75.0193007 L53.7945,65.9261538 L47.071,65.9261538 L47.071,75.0193007 Z M44.571,77.5367832 L56.2945,77.5367832 L56.2945,63.4086713 L44.571,63.4086713 L44.571,77.5367832 Z" id="Fill-419" fill="#2C3E50"></path>
                        <path d="M55.0455,45.2626573 L55.0445,84.9281119 L59.948,79.9888112 L64.851,84.9281119 L64.852,45.2626573 L55.0455,45.2626573" id="Fill-420" fill="#F93922"></path>
                        <path d="M62.4,89.2078322 L57.4965,89.2078322 L59.9485,93.4825175 L62.4,89.2078322" id="Fill-421" fill="#2C3E50"></path>
                        <path d="M61.198,79.9888112 L58.698,79.9888112 L58.6985,45.2626573 L61.1985,45.2626573 L61.198,79.9888112" id="Fill-422" fill="#2C3E50"></path>
                        <path d="M59.9485,96 L53.962,85.5574825 L56.127,84.2987413 L59.9485,90.965035 L63.7685,84.2987413 L65.9335,85.5574825 L59.9485,96" id="Fill-423" fill="#2C3E50"></path>
                        <path d="M64.8515,86.1868531 C64.526,86.1868531 64.2065,86.060979 63.9675,85.8193007 L59.948,81.7711888 L55.928,85.8193007 C55.5715,86.1767832 55.035,86.2875524 54.566,86.0911888 C54.099,85.8948252 53.7945,85.4366434 53.7945,84.9281119 L53.7955,45.2626573 L56.2955,45.2626573 L56.2945,81.886993 L59.064,79.1026573 C59.552,78.6092308 60.3435,78.6092308 60.8315,79.1026573 L63.601,81.886993 L63.602,45.2626573 L66.102,45.2626573 L66.101,84.9281119 C66.101,85.4366434 65.7965,85.8948252 65.3295,86.0911888 C65.175,86.1566434 65.012,86.1868531 64.8515,86.1868531" id="Fill-424" fill="#2C3E50"></path>
                        <path d="M56.296,29.186014 L63.602,29.186014 L63.602,26.7692308 L56.296,26.7692308 L56.296,29.186014 Z M66.102,31.7034965 L53.795,31.7034965 L53.797,24.2517483 L66.102,24.2517483 L66.102,31.7034965 L66.102,31.7034965 Z" id="Fill-425" fill="#2C3E50"></path>
                        <path d="M38.649,44.0039161 L78.662,44.0039161 L81.2465,42.146014 L81.2465,33.5664336 L78.662,31.7034965 L47.1405,31.7034965 C46.5345,35.8825175 42.959,39.0998601 38.649,39.114965 L38.649,44.0039161 L38.649,44.0039161 Z M79.464,46.5213986 L36.149,46.5213986 L36.149,36.5974825 L38.6265,36.5974825 C41.9925,36.5974825 44.731,33.8383217 44.731,30.4447552 L44.731,29.186014 L79.464,29.186014 L83.7465,32.2724476 L83.7465,43.44 L79.464,46.5213986 L79.464,46.5213986 Z" id="Fill-426" fill="#2C3E50"></path>
                        <path d="M60,120 C93.137085,120 120,93.137085 120,60 C120,26.862915 93.137085,0 60,0 C26.862915,0 0,26.862915 0,60 C0,93.137085 26.862915,120 60,120 Z" id="Oval-17" stroke="#BDC3C7" stroke-width="3" stroke-linejoin="round" stroke-dasharray="95,2000"></path>
                        <path d="M60,120 C93.137085,120 120,93.137085 120,60 C120,26.862915 93.137085,0 60,0 C26.862915,0 0,26.862915 0,60 C0,93.137085 26.862915,120 60,120 Z" id="Oval-17-Copy" stroke="#BDC3C7" stroke-width="2" stroke-linejoin="round" stroke-dasharray="45,2000" transform="translate(60.000000, 60.000000) scale(-1, -1) translate(-60.000000, -60.000000) "></path>
                    </g>
                </g>
            </g>
        </g>
    </g>
</svg>