<?xml version="1.0" encoding="UTF-8" standalone="no"?>
<svg width="728px" height="316px" viewBox="0 0 728 316" version="1.1" xmlns="http://www.w3.org/2000/svg" xmlns:xlink="http://www.w3.org/1999/xlink">
    <!-- Generator: Sketch 3.6.1 (26313) - http://www.bohemiancoding.com/sketch -->
    <title>Group 14</title>
    <desc>Created with Sketch.</desc>
    <defs></defs>
    <g id="Visual-1" stroke="none" stroke-width="1" fill="none" fill-rule="evenodd">
        <g id="Process" transform="translate(-408.000000, -659.000000)" stroke="#BDC3C7" stroke-width="2">
            <g id="Design" transform="translate(0.000000, 261.000000)">
                <g id="Group-7" transform="translate(405.000000, 0.000000)">
                    <g id="Group-14" transform="translate(4.000000, 398.000000)">
                        <path d="M591.484692,237.484692 C624.621777,237.484692 651.484692,210.621777 651.484692,177.484692 C651.484692,144.347607 624.621777,117.484692 591.484692,117.484692 C558.347607,117.484692 531.484692,144.347607 531.484692,177.484692 C531.484692,210.621777 558.347607,237.484692 591.484692,237.484692 Z" id="Oval-17-Copy" stroke-linejoin="round" stroke-dasharray="35,2000" transform="translate(591.484692, 177.484692) scale(-1, -1) rotate(107.000000) translate(-591.484692, -177.484692) "></path>
                        <path d="M190.920588,236.920588 C224.057673,236.920588 250.920588,210.057673 250.920588,176.920588 C250.920588,143.783503 224.057673,116.920588 190.920588,116.920588 C157.783503,116.920588 130.920588,143.783503 130.920588,176.920588 C130.920588,210.057673 157.783503,236.920588 190.920588,236.920588 Z" id="Oval-17-Copy-2" stroke-linejoin="round" stroke-dasharray="35,2000" transform="translate(190.920588, 176.920588) scale(1, -1) rotate(106.000000) translate(-190.920588, -176.920588) "></path>
                        <path d="M725.789063,0.4140625 L725.789063,168.341615 L716.242873,177.887805 L649.54295,177.887805" id="Path-551" stroke-dasharray="4,10"></path>
                        <path d="M131.246112,175.531938 L131.246112,306.379592 L121.699923,315.925781 L0.0449252926,314.457719" id="Path-551-Copy" stroke-dasharray="4,10" transform="translate(65.645519, 245.728860) scale(-1, -1) translate(-65.645519, -245.728860) "></path>
                    </g>
                </g>
            </g>
        </g>
    </g>
</svg>