<?xml version="1.0" encoding="UTF-8" standalone="no"?>
<svg width="104px" height="123px" viewBox="0 0 104 123" version="1.1" xmlns="http://www.w3.org/2000/svg" xmlns:xlink="http://www.w3.org/1999/xlink">
    <!-- Generator: Sketch 3.6.1 (26313) - http://www.bohemiancoding.com/sketch -->
    <title>Group 5</title>
    <desc>Created with Sketch.</desc>
    <defs></defs>
    <g id="Visual-1" stroke="none" stroke-width="1" fill="none" fill-rule="evenodd">
        <g id="Process" transform="translate(-391.000000, -969.000000)">
            <g id="Design" transform="translate(0.000000, 261.000000)">
                <g id="4" transform="translate(272.000000, 709.000000)">
                    <g id="Group-5" transform="translate(101.000000, 0.000000)">
                        <path d="M74.983,60.7485 C74.983,68.776 68.475,75.2835 60.448,75.2835 C52.42,75.2835 45.9125,68.776 45.9125,60.7485 C45.9125,52.721 52.42,46.2135 60.448,46.2135 C68.475,46.2135 74.983,52.721 74.983,60.7485" id="Fill-73" fill="#F93922"></path>
                        <path d="M60.448,57.7485 C58.7935,57.7485 57.448,59.094 57.448,60.7485 C57.448,62.4025 58.7935,63.7485 60.448,63.7485 C62.102,63.7485 63.448,62.4025 63.448,60.7485 C63.448,59.094 62.102,57.7485 60.448,57.7485 L60.448,57.7485 Z M60.448,66.2485 C57.415,66.2485 54.948,63.781 54.948,60.7485 C54.948,57.716 57.415,55.2485 60.448,55.2485 C63.4805,55.2485 65.948,57.716 65.948,60.7485 C65.948,63.781 63.4805,66.2485 60.448,66.2485 L60.448,66.2485 Z" id="Fill-74" fill="#2C3E50"></path>
                        <path d="M79.1455,51.8065 C73.2985,48.926 67.008,47.465 60.448,47.465 C53.8875,47.465 47.597,48.926 41.75,51.8065 L40.6455,49.5635 C46.839,46.512 53.5015,44.965 60.448,44.965 C67.394,44.965 74.0565,46.512 80.25,49.5635 L79.1455,51.8065" id="Fill-75" fill="#2C3E50"></path>
                        <path d="M60.448,76.535 C53.5015,76.535 46.8395,74.988 40.6455,71.9365 L41.75,69.6935 C47.597,72.5745 53.888,74.035 60.448,74.035 C67.0075,74.035 73.2985,72.5745 79.1455,69.6935 L80.25,71.9365 C74.056,74.988 67.394,76.535 60.448,76.535" id="Fill-76" fill="#2C3E50"></path>
                        <path d="M32.9315,67.1025 C30.813,65.4585 28.823,63.602 27.0165,61.5835 L26.27,60.75 L27.0165,59.9165 C28.8225,57.8985 30.8125,56.042 32.931,54.3975 L34.4645,56.3725 C32.7595,57.696 31.142,59.165 29.6455,60.75 C31.1425,62.3355 32.76,63.805 34.464,65.1275 L32.9315,67.1025" id="Fill-77" fill="#2C3E50"></path>
                        <path d="M87.964,67.1025 L86.4315,65.1275 C88.1355,63.8055 89.752,62.3365 91.25,60.75 C89.7525,59.164 88.1355,57.695 86.4315,56.3725 L87.964,54.3975 C90.082,56.041 92.0725,57.8975 93.879,59.9165 L94.6255,60.75 L93.879,61.5835 C92.0715,63.6035 90.081,65.46 87.964,67.1025" id="Fill-78" fill="#2C3E50"></path>
                        <path d="M82.198,84.9985 L84.698,84.9985 L84.698,82.4985 L82.198,82.4985 L82.198,84.9985 Z" id="Fill-79" fill="#2C3E50"></path>
                        <path d="M46.3745,84.9985 L48.9335,84.9985 L48.9335,82.4985 L46.3745,82.4985 L46.3745,84.9985 Z M51.492,84.9985 L54.051,84.9985 L54.051,82.4985 L51.492,82.4985 L51.492,84.9985 Z M56.61,84.9985 L59.1685,84.9985 L59.1685,82.4985 L56.61,82.4985 L56.61,84.9985 Z M61.7275,84.9985 L64.286,84.9985 L64.286,82.4985 L61.7275,82.4985 L61.7275,84.9985 Z M66.845,84.9985 L69.404,84.9985 L69.404,82.4985 L66.845,82.4985 L66.845,84.9985 Z M71.963,84.9985 L74.5215,84.9985 L74.5215,82.4985 L71.963,82.4985 L71.963,84.9985 Z" id="Fill-80" fill="#2C3E50"></path>
                        <path d="M36.198,84.9985 L38.698,84.9985 L38.698,82.4985 L36.198,82.4985 L36.198,84.9985 Z" id="Fill-81" fill="#2C3E50"></path>
                        <path d="M36.198,49.234 L38.698,49.234 L38.698,46.675 L36.198,46.675 L36.198,49.234 Z M36.198,54.3515 L38.698,54.3515 L38.698,51.7925 L36.198,51.7925 L36.198,54.3515 Z M36.198,59.469 L38.698,59.469 L38.698,56.9105 L36.198,56.9105 L36.198,59.469 Z M36.198,64.5865 L38.698,64.5865 L38.698,62.028 L36.198,62.028 L36.198,64.5865 Z M36.198,69.7045 L38.698,69.7045 L38.698,67.1455 L36.198,67.1455 L36.198,69.7045 Z M36.198,74.822 L38.698,74.822 L38.698,72.263 L36.198,72.263 L36.198,74.822 Z" id="Fill-82" fill="#2C3E50"></path>
                        <path d="M36.198,38.9985 L38.698,38.9985 L38.698,36.4985 L36.198,36.4985 L36.198,38.9985 Z" id="Fill-83" fill="#2C3E50"></path>
                        <path d="M46.374,38.9985 L48.933,38.9985 L48.933,36.4985 L46.374,36.4985 L46.374,38.9985 Z M51.492,38.9985 L54.051,38.9985 L54.051,36.4985 L51.492,36.4985 L51.492,38.9985 Z M56.6095,38.9985 L59.1685,38.9985 L59.1685,36.4985 L56.6095,36.4985 L56.6095,38.9985 Z M61.727,38.9985 L64.286,38.9985 L64.286,36.4985 L61.727,36.4985 L61.727,38.9985 Z M66.8445,38.9985 L69.404,38.9985 L69.404,36.4985 L66.8445,36.4985 L66.8445,38.9985 Z M71.9625,38.9985 L74.5215,38.9985 L74.5215,36.4985 L71.9625,36.4985 L71.9625,38.9985 Z" id="Fill-84" fill="#2C3E50"></path>
                        <path d="M82.198,38.9985 L84.698,38.9985 L84.698,36.4985 L82.198,36.4985 L82.198,38.9985 Z" id="Fill-85" fill="#2C3E50"></path>
                        <path d="M82.198,49.234 L84.698,49.234 L84.698,46.675 L82.198,46.675 L82.198,49.234 Z M82.198,54.3515 L84.698,54.3515 L84.698,51.7925 L82.198,51.7925 L82.198,54.3515 Z M82.198,59.469 L84.698,59.469 L84.698,56.9105 L82.198,56.9105 L82.198,59.469 Z M82.198,64.5865 L84.698,64.5865 L84.698,62.028 L82.198,62.028 L82.198,64.5865 Z M82.198,69.7045 L84.698,69.7045 L84.698,67.1455 L82.198,67.1455 L82.198,69.7045 Z M82.198,74.822 L84.698,74.822 L84.698,72.263 L82.198,72.263 L82.198,74.822 Z" id="Fill-86" fill="#2C3E50"></path>
                        <path d="M33.698,41.4985 L41.198,41.4985 L41.198,33.9985 L33.698,33.9985 L33.698,41.4985 Z M31.198,43.9985 L43.698,43.9985 L43.698,31.4985 L31.198,31.4985 L31.198,43.9985 Z" id="Fill-87" fill="#2C3E50"></path>
                        <path d="M79.698,41.4985 L87.198,41.4985 L87.198,33.9985 L79.698,33.9985 L79.698,41.4985 Z M77.198,43.9985 L89.698,43.9985 L89.698,31.4985 L77.198,31.4985 L77.198,43.9985 Z" id="Fill-88" fill="#2C3E50"></path>
                        <path d="M33.698,87.4985 L41.198,87.4985 L41.198,79.9985 L33.698,79.9985 L33.698,87.4985 Z M31.198,89.9985 L43.698,89.9985 L43.698,77.4985 L31.198,77.4985 L31.198,89.9985 Z" id="Fill-89" fill="#2C3E50"></path>
                        <path d="M79.698,87.4985 L87.198,87.4985 L87.198,79.9985 L79.698,79.9985 L79.698,87.4985 Z M77.198,89.9985 L89.698,89.9985 L89.698,77.4985 L77.198,77.4985 L77.198,89.9985 Z" id="Fill-90" fill="#2C3E50"></path>
                        <path d="M60,120 C93.137085,120 120,93.137085 120,60 C120,26.862915 93.137085,0 60,0 C26.862915,0 0,26.862915 0,60 C0,93.137085 26.862915,120 60,120 Z" id="Oval-17" stroke="#BDC3C7" stroke-width="3" stroke-linejoin="round" stroke-dasharray="95,2000"></path>
                        <path d="M60,120 C93.137085,120 120,93.137085 120,60 C120,26.862915 93.137085,0 60,0 C26.862915,0 0,26.862915 0,60 C0,93.137085 26.862915,120 60,120 Z" id="Oval-17-Copy" stroke="#BDC3C7" stroke-width="2" stroke-linejoin="round" stroke-dasharray="45,2000" transform="translate(60.000000, 60.000000) scale(-1, -1) translate(-60.000000, -60.000000) "></path>
                    </g>
                </g>
            </g>
        </g>
    </g>
</svg>