<?xml version="1.0" encoding="UTF-8" standalone="no"?>
<svg width="104px" height="123px" viewBox="0 0 104 123" version="1.1" xmlns="http://www.w3.org/2000/svg" xmlns:xlink="http://www.w3.org/1999/xlink">
    <!-- Generator: Sketch 3.6.1 (26313) - http://www.bohemiancoding.com/sketch -->
    <title>Group</title>
    <desc>Created with Sketch.</desc>
    <defs></defs>
    <g id="Visual-1" stroke="none" stroke-width="1" fill="none" fill-rule="evenodd">
        <g id="Process" transform="translate(-1191.000000, -1780.000000)">
            <g id="Develope" transform="translate(0.000000, 1076.000000)">
                <g id="6" transform="translate(1062.000000, 705.000000)">
                    <g id="Group" transform="translate(111.000000, 0.000000)">
                        <path d="M91.698,78.54 L86.448,78.54 L86.448,76.04 L89.198,76.04 L89.198,36.2095 L31.6975,36.2095 L31.6975,76.04 L34.448,76.04 L34.448,78.54 L29.198,78.54 L29.198,33.7095 L91.698,33.7095 L91.698,78.54" id="Fill-327" fill="#242D3C"></path>
                        <path d="M31.6975,33.707 L89.198,33.707 L89.198,28.707 L31.6975,28.707 L31.6975,33.707 Z M29.198,36.207 L91.698,36.207 L91.698,26.207 L29.198,26.207 L29.198,36.207 Z" id="Fill-328" fill="#242D3C"></path>
                        <path d="M34.448,32.457 L36.948,32.457 L36.948,29.957 L34.448,29.957 L34.448,32.457 Z" id="Fill-329" fill="#242D3C"></path>
                        <path d="M39.448,32.457 L41.948,32.457 L41.948,29.957 L39.448,29.957 L39.448,32.457 Z" id="Fill-330" fill="#242D3C"></path>
                        <path d="M44.4475,32.457 L46.9475,32.457 L46.9475,29.957 L44.4475,29.957 L44.4475,32.457 Z" id="Fill-331" fill="#242D3C"></path>
                        <path d="M34.448,38.957 L34.448,73.29 L41.0805,73.29 C41.0805,73.25 41.0775,73.21 41.0775,73.17 C41.0775,62.475 49.7495,53.805 60.4475,53.805 C71.146,53.805 79.818,62.475 79.818,73.17 C79.818,73.21 79.815,73.25 79.815,73.29 L86.448,73.29 L86.448,38.957 L34.448,38.957" id="Fill-332" fill="#3EC7A2"></path>
                        <path d="M60.4475,55.055 C50.456,55.055 42.3275,63.18 42.3275,73.17 C42.3275,83.16 50.456,91.29 60.4475,91.29 C70.439,91.29 78.568,83.16 78.568,73.17 C78.568,63.18 70.439,55.055 60.4475,55.055 L60.4475,55.055 Z M60.4475,93.79 C49.0775,93.79 39.8275,84.54 39.8275,73.17 C39.8275,61.805 49.0775,52.555 60.4475,52.555 C71.8175,52.555 81.068,61.805 81.068,73.17 C81.068,84.54 71.8175,93.79 60.4475,93.79 L60.4475,93.79 Z" id="Fill-333" fill="#242D3C"></path>
                        <path d="M59.1975,53.805 L61.6975,53.805 L61.6975,48.46 L59.1975,48.46 L59.1975,53.805 Z" id="Fill-334" fill="#242D3C"></path>
                        <path d="M58.0275,47.29 C57.7135,47.29 57.418,47.4115 57.196,47.633 C56.978,47.8505 56.857,48.145 56.857,48.46 C56.857,48.7745 56.9785,49.069 57.1985,49.289 C57.418,49.5085 57.7125,49.6295 58.0275,49.6295 L62.8665,49.6295 C63.182,49.6295 63.477,49.5085 63.697,49.2885 C63.9155,49.07 64.0365,48.775 64.0365,48.46 C64.0365,48.1445 63.916,47.8495 63.6965,47.63 C63.477,47.412 63.181,47.29 62.8665,47.29 L58.0275,47.29 L58.0275,47.29 Z M62.8665,52.1295 L58.0275,52.1295 C57.045,52.1295 56.123,51.7485 55.431,51.057 C54.738,50.364 54.357,49.442 54.357,48.46 C54.357,47.477 54.7385,46.5545 55.431,45.8625 C56.127,45.17 57.0485,44.79 58.0275,44.79 L62.8665,44.79 C63.846,44.79 64.7675,45.17 65.4615,45.86 C66.156,46.555 66.5365,47.477 66.5365,48.46 C66.5365,49.442 66.1565,50.364 65.4655,51.0555 C64.772,51.7485 63.8495,52.1295 62.8665,52.1295 L62.8665,52.1295 Z" id="Fill-335" fill="#242D3C"></path>
                        <path d="M77.8865,60.2425 L76.1145,58.479 L77.248,57.3395 L77.25,57.277 L76.34,56.366 L75.396,55.4825 L76.281,56.365 L75.144,57.5045 L73.3745,55.739 L74.511,54.5995 C74.993,54.1185 75.633,53.8545 76.314,53.8545 C77,53.8545 77.64,54.1215 78.116,54.607 L79.0185,55.5095 C79.5015,55.9925 79.768,56.632 79.768,57.309 C79.768,57.986 79.501,58.624 79.0165,59.107 L77.8865,60.2425" id="Fill-336" fill="#242D3C"></path>
                        <path d="M43.016,60.245 L41.8755,59.105 C41.395,58.623 41.129,57.988 41.1265,57.3145 C41.129,56.629 41.3945,55.992 41.8735,55.511 L42.787,54.598 C43.2595,54.1205 43.8985,53.8545 44.5815,53.8545 C45.262,53.8545 45.901,54.118 46.381,54.597 L47.5225,55.737 L45.7565,57.5065 L44.615,56.3665 L44.6125,56.369 L44.554,56.3665 L43.643,57.2775 L42.7595,58.2205 L43.643,57.3365 L44.7835,58.4765 L43.016,60.245" id="Fill-337" fill="#242D3C"></path>
                        <path d="M60.4475,57.0335 L60.4475,70.75 C61.7805,70.75 62.8655,71.835 62.8655,73.17 L76.5905,73.17 C76.5905,64.255 69.3645,57.0335 60.4475,57.0335" id="Fill-338" fill="#3EC7A2"></path>
                        <path d="M68.4725,61.775 L66.305,60.529 L67.4285,58.573 L69.596,59.8185 L68.4725,61.775" id="Fill-339" fill="#242D3C"></path>
                        <path d="M59.1975,59.2905 L61.6975,59.2905 L61.6975,57.0335 L59.1975,57.0335 L59.1975,59.2905 Z" id="Fill-340" fill="#242D3C"></path>
                        <path d="M52.426,61.78 L51.2935,59.8225 L53.457,58.5695 L54.5895,60.525 L52.426,61.78" id="Fill-341" fill="#242D3C"></path>
                        <path d="M47.802,67.315 L45.845,66.19 L47.0915,64.02 L49.0485,65.145 L47.802,67.315" id="Fill-342" fill="#242D3C"></path>
                        <path d="M44.308,74.42 L46.5675,74.42 L46.5675,71.92 L44.308,71.92 L44.308,74.42 Z" id="Fill-343" fill="#242D3C"></path>
                        <path d="M47.094,82.325 L45.8425,80.16 L47.8,79.03 L49.051,81.19 L47.094,82.325" id="Fill-344" fill="#242D3C"></path>
                        <path d="M53.4585,87.775 L51.2935,86.525 L52.4255,84.565 L54.59,85.815 L53.4585,87.775" id="Fill-345" fill="#242D3C"></path>
                        <path d="M59.198,89.315 L61.698,89.315 L61.698,87.05 L59.198,87.05 L59.198,89.315 Z" id="Fill-346" fill="#242D3C"></path>
                        <path d="M67.428,87.77 L66.3045,85.815 L68.473,84.57 L69.5965,86.525 L67.428,87.77" id="Fill-347" fill="#242D3C"></path>
                        <path d="M73.8035,82.325 L71.8385,81.195 L73.086,79.025 L75.051,80.155 L73.8035,82.325" id="Fill-348" fill="#242D3C"></path>
                        <path d="M74.3285,74.42 L76.5905,74.42 L76.5905,71.92 L74.3285,71.92 L74.3285,74.42 Z" id="Fill-349" fill="#242D3C"></path>
                        <path d="M73.0835,67.315 L71.8415,65.145 L73.805,64.02 L75.0475,66.19 L73.0835,67.315" id="Fill-350" fill="#242D3C"></path>
                        <path d="M60.4475,72 C59.8025,72 59.278,72.525 59.278,73.17 C59.278,73.815 59.8025,74.345 60.4475,74.345 C61.0915,74.345 61.6155,73.815 61.6155,73.17 C61.6155,72.525 61.0915,72 60.4475,72 L60.4475,72 Z M60.4475,76.845 C58.424,76.845 56.778,75.195 56.778,73.17 C56.778,71.145 58.424,69.5 60.4475,69.5 C62.47,69.5 64.1155,71.145 64.1155,73.17 C64.1155,75.195 62.47,76.845 60.4475,76.845 L60.4475,76.845 Z" id="Fill-351" fill="#242D3C"></path>
                        <path d="M62.8655,74.42 L69.006,74.42 L69.006,71.92 L62.8655,71.92 L62.8655,74.42 Z" id="Fill-352" fill="#242D3C"></path>
                        <path d="M60,120 C93.137085,120 120,93.137085 120,60 C120,26.862915 93.137085,0 60,0 C26.862915,0 0,26.862915 0,60 C0,93.137085 26.862915,120 60,120 Z" id="Oval-17" stroke="#BDC3C7" stroke-width="3" stroke-linejoin="round" stroke-dasharray="95,2000"></path>
                        <path d="M60,120 C93.137085,120 120,93.137085 120,60 C120,26.862915 93.137085,0 60,0 C26.862915,0 0,26.862915 0,60 C0,93.137085 26.862915,120 60,120 Z" id="Oval-17-Copy" stroke="#BDC3C7" stroke-width="2" stroke-linejoin="round" stroke-dasharray="45,2000" transform="translate(60.000000, 60.000000) scale(-1, -1) translate(-60.000000, -60.000000) "></path>
                    </g>
                </g>
            </g>
        </g>
    </g>
</svg>