<?xml version="1.0" encoding="UTF-8" standalone="no"?>
<svg width="104px" height="123px" viewBox="0 0 104 123" version="1.1" xmlns="http://www.w3.org/2000/svg" xmlns:xlink="http://www.w3.org/1999/xlink">
    <!-- Generator: Sketch 3.6.1 (26313) - http://www.bohemiancoding.com/sketch -->
    <title>Group 4</title>
    <desc>Created with Sketch.</desc>
    <defs></defs>
    <g id="Visual-1" stroke="none" stroke-width="1" fill="none" fill-rule="evenodd">
        <g id="Process" transform="translate(-1052.000000, -554.000000)">
            <g id="Design" transform="translate(0.000000, 261.000000)">
                <g id="3" transform="translate(942.000000, 294.000000)">
                    <g id="Group-4" transform="translate(92.000000, 0.000000)">
                        <path d="M83.6595,86.261 L71.23,86.261 L71.23,83.761 L81.1595,83.761 L81.1595,36.038 L72.1215,26.9995 L39.736,26.9995 L39.736,83.761 L49.6665,83.761 L49.6665,86.261 L37.236,86.261 L37.236,24.4995 L73.1565,24.4995 L83.6595,35.002 L83.6595,86.261" id="Fill-294" fill="#2C3E50"></path>
                        <path d="M82.4085,36.768 L71.389,36.768 L71.389,25.7485 L73.889,25.7485 L73.889,34.268 L82.4085,34.268 L82.4085,36.768" id="Fill-295" fill="#2C3E50"></path>
                        <path d="M58.764,75.525 C56.903,75.525 55.388,77.0395 55.388,78.901 L55.388,91.1205 C55.388,92.983 56.903,94.4985 58.764,94.4985 L62.1275,94.4985 C63.991,94.4985 65.5075,92.983 65.5075,91.1205 L65.5075,78.901 C65.5075,77.0395 63.991,75.525 62.1275,75.525 L58.764,75.525 L58.764,75.525 Z M62.1275,96.9985 L58.764,96.9985 C55.524,96.9985 52.888,94.362 52.888,91.1205 L52.888,78.901 C52.888,75.661 55.524,73.025 58.764,73.025 L62.1275,73.025 C65.3695,73.025 68.0075,75.661 68.0075,78.901 L68.0075,91.1205 C68.0075,94.362 65.3695,96.9985 62.1275,96.9985 L62.1275,96.9985 Z" id="Fill-296" fill="#2C3E50"></path>
                        <path d="M61.938,79.1125 C61.938,79.9355 61.271,80.605 60.445,80.605 C59.6215,80.605 58.9545,79.9355 58.9545,79.1125 C58.9545,78.284 59.6215,77.617 60.445,77.617 C61.271,77.617 61.938,78.284 61.938,79.1125" id="Fill-297" fill="#3EC7A2"></path>
                        <path d="M60.448,45.198 C56.446,45.198 53.2015,48.4415 53.2015,52.4435 C53.2015,55.775 55.4525,58.5735 58.513,59.421 L60.448,55.2905 L62.3825,59.421 C65.443,58.573 67.694,55.775 67.694,52.4435 C67.694,48.4415 64.4485,45.198 60.448,45.198" id="Fill-298" fill="#3EC7A2"></path>
                        <path d="M59.198,69.573 L61.698,69.573 L61.698,64.3725 L59.198,64.3725 L59.198,69.573 Z" id="Fill-299" fill="#2C3E50"></path>
                        <path d="M58.1605,63.1225 L62.736,63.1225 L60.448,58.238 L58.1605,63.1225 L58.1605,63.1225 Z M66.6675,65.6225 L54.229,65.6225 L60.448,52.3435 L66.6675,65.6225 L66.6675,65.6225 Z" id="Fill-300" fill="#2C3E50"></path>
                        <path d="M73.566,50.302 C72.61,44.7855 68.2615,40.4375 62.746,39.483 L63.173,37.02 C69.7265,38.154 74.893,43.3205 76.029,49.875 L73.566,50.302" id="Fill-301" fill="#2C3E50"></path>
                        <path d="M47.3315,50.302 L44.8685,49.875 C46.0035,43.3205 51.1695,38.1545 57.7235,37.02 L58.1505,39.483 C52.6345,40.4375 48.287,44.7855 47.3315,50.302" id="Fill-302" fill="#2C3E50"></path>
                        <path d="M73.7545,53.862 L76.281,53.862 L76.281,51.3375 L73.7545,51.3375 L73.7545,53.862 Z M71.2545,56.362 L78.781,56.362 L78.781,48.8375 L71.2545,48.8375 L71.2545,56.362 Z" id="Fill-303" fill="#2C3E50"></path>
                        <path d="M59.186,39.2915 L61.7095,39.2915 L61.7095,36.768 L59.186,36.768 L59.186,39.2915 Z M56.686,41.7915 L64.2095,41.7915 L64.2095,34.268 L56.686,34.268 L56.686,41.7915 Z" id="Fill-304" fill="#2C3E50"></path>
                        <path d="M44.6165,53.862 L47.14,53.862 L47.14,51.3375 L44.6165,51.3375 L44.6165,53.862 Z M42.1165,56.362 L49.64,56.362 L49.64,48.8375 L42.1165,48.8375 L42.1165,56.362 Z" id="Fill-305" fill="#2C3E50"></path>
                        <path d="M60,120 C93.137085,120 120,93.137085 120,60 C120,26.862915 93.137085,0 60,0 C26.862915,0 0,26.862915 0,60 C0,93.137085 26.862915,120 60,120 Z" id="Oval-17" stroke="#BDC3C7" stroke-width="3" stroke-linejoin="round" stroke-dasharray="95,2000"></path>
                        <path d="M60,120 C93.137085,120 120,93.137085 120,60 C120,26.862915 93.137085,0 60,0 C26.862915,0 0,26.862915 0,60 C0,93.137085 26.862915,120 60,120 Z" id="Oval-17-Copy" stroke="#BDC3C7" stroke-width="2" stroke-linejoin="round" stroke-dasharray="45,2000" transform="translate(60.000000, 60.000000) scale(-1, -1) translate(-60.000000, -60.000000) "></path>
                    </g>
                </g>
            </g>
        </g>
    </g>
</svg>