<?xml version="1.0" encoding="UTF-8" standalone="no"?>
<svg width="104px" height="123px" viewBox="0 0 104 123" version="1.1" xmlns="http://www.w3.org/2000/svg" xmlns:xlink="http://www.w3.org/1999/xlink">
    <!-- Generator: Sketch 3.6.1 (26313) - http://www.bohemiancoding.com/sketch -->
    <title>Group 8</title>
    <desc>Created with Sketch.</desc>
    <defs></defs>
    <g id="Visual-1" stroke="none" stroke-width="1" fill="none" fill-rule="evenodd">
        <g id="Process" transform="translate(-812.000000, -1780.000000)">
            <g id="Develope" transform="translate(0.000000, 1076.000000)">
                <g id="5" transform="translate(697.000000, 705.000000)">
                    <g id="Group-8" transform="translate(97.000000, 0.000000)">
                        <path d="M70.522,93.81 L50.374,93.81 L50.374,87.095 L52.874,87.095 L52.874,91.31 L68.022,91.31 L68.022,87.095 L70.522,87.095 L70.522,93.81" id="Fill-365" fill="#242D3C"></path>
                        <path d="M46.589,93.81 L74.308,93.81 L74.308,91.31 L46.589,91.31 L46.589,93.81 Z" id="Fill-366" fill="#242D3C"></path>
                        <path d="M91.698,77.785 L29.198,77.785 L29.198,38.0045 C29.198,37.1065 29.548,36.261 30.184,35.6255 C30.8195,34.9895 31.6665,34.639 32.568,34.639 L43.698,34.639 L43.698,37.139 L32.568,37.139 C32.4025,37.139 32.1615,37.183 31.952,37.393 C31.788,37.557 31.698,37.774 31.698,38.0045 L31.698,75.285 L89.198,75.285 L89.198,38.0045 C89.198,37.7775 89.106,37.56 88.939,37.393 C88.775,37.2275 88.5615,37.139 88.3325,37.139 L77.198,37.139 L77.198,34.639 L88.3325,34.639 C89.235,34.639 90.08,34.991 90.712,35.631 C91.3455,36.2645 91.698,37.1095 91.698,38.0045 L91.698,77.785" id="Fill-367" fill="#242D3C"></path>
                        <path d="M31.698,77.785 L31.698,81.475 C31.698,81.705 31.7875,81.925 31.95,82.085 C32.1715,82.31 32.4295,82.34 32.5645,82.34 L88.3305,82.34 C88.465,82.34 88.722,82.31 88.9365,82.09 C89.1075,81.925 89.198,81.705 89.198,81.475 L89.198,77.785 L31.698,77.785 L31.698,77.785 Z M88.3305,84.84 L32.5645,84.84 C31.66,84.84 30.8135,84.49 30.181,83.855 C29.5495,83.225 29.198,82.38 29.198,81.475 L29.198,75.285 L91.698,75.285 L91.698,81.475 C91.698,82.375 91.345,83.225 90.7055,83.86 C90.0805,84.49 89.235,84.84 88.3305,84.84 L88.3305,84.84 Z" id="Fill-368" fill="#242D3C"></path>
                        <path d="M77.198,71.535 L85.4485,71.535 L85.4485,40.889 L77.198,40.889 L77.198,71.535 Z" id="Fill-369" fill="#4988E6"></path>
                        <path d="M35.4485,71.535 L43.698,71.535 L43.698,40.889 L35.4485,40.889 L35.4485,71.535 Z" id="Fill-370" fill="#4988E6"></path>
                        <path d="M78.448,71.535 L75.948,71.535 L75.948,36.4085 L69.227,29.689 L44.948,29.689 L44.948,71.535 L42.448,71.535 L42.448,27.189 L70.262,27.189 L78.448,35.3735 L78.448,71.535" id="Fill-371" fill="#242D3C"></path>
                        <path d="M77.198,37.139 L68.4945,37.139 L68.4945,28.438 L70.9945,28.438 L70.9945,34.639 L77.198,34.639 L77.198,37.139" id="Fill-372" fill="#242D3C"></path>
                        <path d="M58.6815,62.275 L71.682,62.275 L71.682,59.776 L58.6815,59.776 L58.6815,62.275 Z" id="Fill-373" fill="#242D3C"></path>
                        <path d="M58.6815,66.275 L71.682,66.275 L71.682,63.775 L58.6815,63.775 L58.6815,66.275 Z" id="Fill-374" fill="#242D3C"></path>
                        <path d="M51.7445,66.275 L48.275,62.805 L50.152,60.9285 L51.7435,62.52 L54.802,59.4595 L56.68,61.3365 L51.7445,66.275" id="Fill-375" fill="#4988E6"></path>
                        <path d="M58.6815,53.276 L71.682,53.276 L71.682,50.776 L58.6815,50.776 L58.6815,53.276 Z" id="Fill-376" fill="#242D3C"></path>
                        <path d="M58.6815,57.276 L71.682,57.276 L71.682,54.776 L58.6815,54.776 L58.6815,57.276 Z" id="Fill-377" fill="#242D3C"></path>
                        <path d="M51.7445,57.2755 L48.275,53.8065 L50.152,51.9285 L51.7435,53.5205 L54.802,50.4595 L56.68,52.3365 L51.7445,57.2755" id="Fill-378" fill="#4988E6"></path>
                        <path d="M58.6815,44.276 L71.682,44.276 L71.682,41.776 L58.6815,41.776 L58.6815,44.276 Z" id="Fill-379" fill="#242D3C"></path>
                        <path d="M58.6815,48.276 L71.682,48.276 L71.682,45.776 L58.6815,45.776 L58.6815,48.276 Z" id="Fill-380" fill="#242D3C"></path>
                        <path d="M51.7445,48.2755 L48.275,44.8065 L50.152,42.9285 L51.7435,44.5205 L54.802,41.4595 L56.68,43.3365 L51.7445,48.2755" id="Fill-381" fill="#4988E6"></path>
                        <path d="M60,120 C93.137085,120 120,93.137085 120,60 C120,26.862915 93.137085,0 60,0 C26.862915,0 0,26.862915 0,60 C0,93.137085 26.862915,120 60,120 Z" id="Oval-17" stroke="#BDC3C7" stroke-width="3" stroke-linejoin="round" stroke-dasharray="95,2000"></path>
                        <path d="M60,120 C93.137085,120 120,93.137085 120,60 C120,26.862915 93.137085,0 60,0 C26.862915,0 0,26.862915 0,60 C0,93.137085 26.862915,120 60,120 Z" id="Oval-17-Copy" stroke="#BDC3C7" stroke-width="2" stroke-linejoin="round" stroke-dasharray="45,2000" transform="translate(60.000000, 60.000000) scale(-1, -1) translate(-60.000000, -60.000000) "></path>
                    </g>
                </g>
            </g>
        </g>
    </g>
</svg>