<?xml version="1.0" encoding="UTF-8" standalone="no"?>
<svg width="104px" height="123px" viewBox="0 0 104 123" version="1.1" xmlns="http://www.w3.org/2000/svg" xmlns:xlink="http://www.w3.org/1999/xlink">
    <!-- Generator: Sketch 3.6.1 (26313) - http://www.bohemiancoding.com/sketch -->
    <title>Group 10</title>
    <desc>Created with Sketch.</desc>
    <defs></defs>
    <g id="Visual-1" stroke="none" stroke-width="1" fill="none" fill-rule="evenodd">
        <g id="Process" transform="translate(-1191.000000, -1465.000000)">
            <g id="Develope" transform="translate(0.000000, 1076.000000)">
                <g id="4-copy-2" transform="translate(1067.000000, 390.000000)">
                    <g id="Group-10" transform="translate(106.000000, 0.000000)">
                        <path d="M70.4853471,92.8201163 L50.9124132,92.8201163 L50.9124132,86.2818217 L53.4330744,86.2818217 L53.4330744,90.3007364 L67.964686,90.3007364 L67.964686,86.2818217 L70.4853471,86.2818217 L70.4853471,92.8201163" id="Fill-148" fill="#2C3E50"></path>
                        <path d="M47.3083719,92.8201163 L74.091405,92.8201163 L74.091405,90.3007364 L47.3083719,90.3007364 L47.3083719,92.8201163 Z" id="Fill-149" fill="#2C3E50"></path>
                        <path d="M90.9475702,77.3440698 L30.4517025,77.3440698 L30.4517025,38.8781783 C30.4517025,37.9958915 30.7955207,37.1660078 31.4206446,36.5417054 C32.0361901,35.9184109 32.8680083,35.5727519 33.7588099,35.5727519 L41.2905455,35.5727519 L41.2905455,38.0921318 L33.7588099,38.0921318 C33.6363058,38.0921318 33.4023884,38.1213566 33.2082975,38.3173643 C33.0540331,38.4715504 32.9723636,38.6690698 32.9723636,38.8781783 L32.9723636,74.8246899 L88.4269091,74.8246899 L88.4269091,38.8781783 C88.4269091,38.6690698 88.3442314,38.4720543 88.1960165,38.322907 C87.9963802,38.1213566 87.7624628,38.0921318 87.6404628,38.0921318 L80.1087273,38.0921318 L80.1087273,35.5727519 L87.6404628,35.5727519 C88.5307603,35.5727519 89.3625785,35.9184109 89.9831653,36.5467442 C90.6032479,37.1660078 90.9475702,37.9958915 90.9475702,38.8781783 L90.9475702,77.3440698" id="Fill-150" fill="#2C3E50"></path>
                        <path d="M46.3318678,38.0921318 L51.3731901,38.0921318 L51.3731901,35.5727519 L46.3318678,35.5727519 L46.3318678,38.0921318 Z" id="Fill-151" fill="#2C3E50"></path>
                        <path d="M36.2492231,71.55 L41.2905455,71.55 L41.2905455,41.3663178 L36.2492231,41.3663178 L36.2492231,71.55 Z" id="Fill-152" fill="#F93922"></path>
                        <path d="M46.3318678,71.55 L51.3731901,71.55 L51.3731901,41.3663178 L46.3318678,41.3663178 L46.3318678,71.55 Z" id="Fill-153" fill="#F93922"></path>
                        <path d="M80.1087273,71.55 L85.1500496,71.55 L85.1500496,41.3663178 L80.1087273,41.3663178 L80.1087273,71.55 Z" id="Fill-154" fill="#F93922"></path>
                        <path d="M32.9723636,77.3445736 L32.9723636,80.8560853 C32.9723636,81.0662016 33.0535289,81.2632171 33.2007355,81.409845 C33.4013802,81.6113953 33.6352975,81.641124 33.7572975,81.641124 L87.6409669,81.641124 C87.7629669,81.641124 87.9968843,81.6113953 88.1914793,81.4158915 C88.3452397,81.2627132 88.4269091,81.0662016 88.4269091,80.8560853 L88.4269091,77.3445736 L32.9723636,77.3445736 L32.9723636,77.3445736 Z M87.6409669,84.1605039 L33.7572975,84.1605039 C32.8690165,84.1605039 32.0377025,83.8153488 31.4171157,83.1895349 C30.7965289,82.5727907 30.4517025,81.7418992 30.4517025,80.8560853 L30.4517025,74.8251938 L90.9475702,74.8251938 L90.9475702,80.8560853 C90.9475702,81.7413953 90.6022397,82.5722868 89.9756033,83.1955814 C89.360562,83.8153488 88.5297521,84.1605039 87.6409669,84.1605039 L87.6409669,84.1605039 Z" id="Fill-155" fill="#2C3E50"></path>
                        <path d="M45.1834545,37.3514341 L43.8112066,34.3181008 L42.4384545,37.3514341 L40.1421322,36.3134496 L43.8112066,28.2025581 L47.4797769,36.3134496 L45.1834545,37.3514341" id="Fill-156" fill="#2C3E50"></path>
                        <path d="M47.5921983,71.55 L45.0715372,71.55 L45.0715372,38.0921318 L42.550876,38.0921318 L42.550876,71.55 L40.0302149,71.55 L40.0302149,36.8324419 C40.0302149,36.1365891 40.5943388,35.5727519 41.2905455,35.5727519 L46.3318678,35.5727519 C47.0275702,35.5727519 47.5921983,36.1365891 47.5921983,36.8324419 L47.5921983,71.55" id="Fill-157" fill="#2C3E50"></path>
                        <path d="M81.3690579,71.55 L78.8483967,71.55 L78.8483967,37.3554651 L73.1945537,31.7039922 L52.6335207,31.7039922 L52.6335207,71.55 L50.1128595,71.55 L50.1128595,29.1846124 L74.2381074,29.1846124 L81.3690579,36.311938 L81.3690579,71.55" id="Fill-158" fill="#2C3E50"></path>
                        <path d="M80.1082231,38.0921318 L72.456,38.0921318 L72.456,30.4443023 L74.9766612,30.4443023 L74.9766612,35.5727519 L80.1082231,35.5727519 L80.1082231,38.0921318" id="Fill-159" fill="#2C3E50"></path>
                        <path d="M65.7409587,41.3663178 C61.563719,41.3663178 58.1789752,44.749845 58.1789752,48.9234496 C58.1789752,52.399186 60.5272231,55.3181395 63.7229174,56.2009302 L65.7409587,51.8937984 L67.7584959,56.2009302 C70.953686,55.3181395 73.3029421,52.399186 73.3029421,48.9234496 C73.3029421,44.749845 69.9176942,41.3663178 65.7409587,41.3663178" id="Fill-160" fill="#F93922"></path>
                        <path d="M64.4806281,66.691124 L67.0012893,66.691124 L67.0012893,61.3661628 L64.4806281,61.3661628 L64.4806281,66.691124 Z" id="Fill-161" fill="#2C3E50"></path>
                        <path d="M63.2843223,60.1064729 L68.1970909,60.1064729 L65.7409587,54.8641473 L63.2843223,60.1064729 L63.2843223,60.1064729 Z M72.1610826,62.6258527 L59.3208347,62.6258527 L65.7409587,48.9239535 L72.1610826,62.6258527 L72.1610826,62.6258527 Z" id="Fill-162" fill="#2C3E50"></path>
                        <path d="M60,120 C93.137085,120 120,93.137085 120,60 C120,26.862915 93.137085,0 60,0 C26.862915,0 0,26.862915 0,60 C0,93.137085 26.862915,120 60,120 Z" id="Oval-17" stroke="#BDC3C7" stroke-width="3" stroke-linejoin="round" stroke-dasharray="95,2000"></path>
                        <path d="M60,120 C93.137085,120 120,93.137085 120,60 C120,26.862915 93.137085,0 60,0 C26.862915,0 0,26.862915 0,60 C0,93.137085 26.862915,120 60,120 Z" id="Oval-17-Copy" stroke="#BDC3C7" stroke-width="2" stroke-linejoin="round" stroke-dasharray="45,2000" transform="translate(60.000000, 60.000000) scale(-1, -1) translate(-60.000000, -60.000000) "></path>
                    </g>
                </g>
            </g>
        </g>
    </g>
</svg>