<?xml version="1.0" encoding="UTF-8" standalone="no"?>
<svg width="104px" height="123px" viewBox="0 0 104 123" version="1.1" xmlns="http://www.w3.org/2000/svg" xmlns:xlink="http://www.w3.org/1999/xlink">
    <!-- Generator: Sketch 3.6.1 (26313) - http://www.bohemiancoding.com/sketch -->
    <title>Group 11</title>
    <desc>Created with Sketch.</desc>
    <defs></defs>
    <g id="Visual-1" stroke="none" stroke-width="1" fill="none" fill-rule="evenodd">
        <g id="Process" transform="translate(-812.000000, -1465.000000)">
            <g id="Develope" transform="translate(0.000000, 1076.000000)">
                <g id="5-copy" transform="translate(687.000000, 390.000000)">
                    <g id="Group-11" transform="translate(107.000000, 0.000000)">
                        <path d="M86.799,87.3018321 L86.799,89.0954198 C86.799,89.4329771 86.9285,89.7453435 87.1645,89.9821374 C87.6365,90.4607634 88.462,90.4607634 88.931,89.9871756 C89.169,89.7453435 89.299,89.4329771 89.299,89.0954198 L89.299,87.3018321 L86.799,87.3018321 L86.799,87.3018321 Z M88.049,92.8740458 C87.0455,92.8740458 86.1035,92.4810687 85.396,91.7656489 C84.6885,91.050229 84.299,90.1030534 84.299,89.0954198 L84.299,84.7827481 L91.799,84.7827481 L91.799,89.0954198 C91.799,90.1030534 91.4085,91.050229 90.7,91.7656489 C89.9945,92.4810687 89.052,92.8740458 88.049,92.8740458 L88.049,92.8740458 Z" id="Fill-372" fill="#2C3E50"></path>
                        <path d="M89.41,44.4673282 L88.049,41.4343511 L86.6875,44.4673282 L84.41,43.4294656 L88.049,35.3180153 L91.6875,43.4294656 L89.41,44.4673282" id="Fill-373" fill="#2C3E50"></path>
                        <path d="M86.799,84.7827481 L89.299,84.7827481 L89.299,45.2079389 L86.799,45.2079389 L86.799,84.7827481 Z M90.549,87.3018321 L85.549,87.3018321 C84.8585,87.3018321 84.299,86.7375573 84.299,86.0422901 L84.299,43.9483969 C84.299,43.2480916 84.8585,42.688855 85.549,42.688855 L90.549,42.688855 C91.2395,42.688855 91.799,43.2480916 91.799,43.9483969 L91.799,86.0422901 C91.799,86.7375573 91.2395,87.3018321 90.549,87.3018321 L90.549,87.3018321 Z" id="Fill-374" fill="#2C3E50"></path>
                        <path d="M37.758,84.3948092 L35.258,84.3948092 L35.258,29.8969466 L50.978,29.8969466 L50.978,32.4160305 L37.758,32.4160305 L37.758,84.3948092" id="Fill-375" fill="#2C3E50"></path>
                        <path d="M73.3875,92.8740458 L73.3875,90.3549618 C76.6465,90.3549618 79.298,87.6796947 79.298,84.3948092 L79.298,32.4160305 L66.0825,32.4160305 L66.0825,29.8969466 L81.798,29.8969466 L81.798,84.3948092 C81.798,89.070229 78.025,92.8740458 73.3875,92.8740458" id="Fill-376" fill="#2C3E50"></path>
                        <path d="M30.7295,85.6543511 C31.305,88.3396947 33.678,90.3549618 36.51,90.3549618 L67.4065,90.3549618 C66.179,89.1054962 65.334,87.4731298 65.064,85.6543511 L30.7295,85.6543511 L30.7295,85.6543511 Z M73.3845,92.8740458 L36.51,92.8740458 C31.8715,92.8740458 28.097,89.070229 28.0965,84.3948092 L28.0965,83.1352672 L67.4715,83.1352672 L67.4715,84.3948092 C67.4715,87.6796947 70.124,90.3549618 73.3845,90.3549618 L73.3845,92.8740458 L73.3845,92.8740458 Z" id="Fill-377" fill="#2C3E50"></path>
                        <path d="M62.279,31.1564885 C62.279,33.2422901 60.599,34.9351145 58.5285,34.9351145 C56.458,34.9351145 54.7785,33.2422901 54.7785,31.1564885 C54.7785,29.070687 56.458,27.3778626 58.5285,27.3778626 C60.599,27.3778626 62.279,29.070687 62.279,31.1564885" id="Fill-378" fill="#4988E6"></path>
                        <path d="M54.4865,77.0441221 L62.57,77.0441221 L62.57,68.9024427 L54.4865,68.9024427 L54.4865,77.0441221 Z" id="Fill-379" fill="#4988E6"></path>
                        <path d="M50.4445,50.4274809 L66.613,50.4274809 L66.613,42.2807634 L50.4445,42.2807634 L50.4445,50.4274809 Z" id="Fill-380" fill="#4988E6"></path>
                        <path d="M66.9525,77.0441221 L75.0355,77.0441221 L75.0355,68.9024427 L66.9525,68.9024427 L66.9525,77.0441221 Z" id="Fill-381" fill="#4988E6"></path>
                        <path d="M42.0215,77.0441221 L50.1055,77.0441221 L50.1055,68.9024427 L42.0215,68.9024427 L42.0215,77.0441221 Z" id="Fill-382" fill="#4988E6"></path>
                        <path d="M72.2435,65.909771 L69.7435,65.909771 L69.7435,62.7206107 C69.7435,62.2369466 69.559,61.7885496 69.2235,61.4509924 C68.885,61.1083969 68.4385,60.9219847 67.963,60.9219847 L49.095,60.9219847 C48.619,60.9219847 48.172,61.1083969 47.8365,61.4509924 C47.4985,61.7885496 47.313,62.2369466 47.313,62.7206107 L47.313,65.909771 L44.813,65.909771 L44.813,62.7206107 C44.813,61.5668702 45.2595,60.4836641 46.069,59.6674809 C46.875,58.8512977 47.9505,58.4029008 49.095,58.4029008 L67.963,58.4029008 C69.1075,58.4029008 70.183,58.8563359 70.99,59.6725191 C71.7975,60.478626 72.2435,61.5618321 72.2435,62.7206107 L72.2435,65.909771" id="Fill-383" fill="#2C3E50"></path>
                        <path d="M57.2785,65.909771 L59.7785,65.909771 L59.7785,53.4151145 L57.2785,53.4151145 L57.2785,65.909771 Z" id="Fill-384" fill="#2C3E50"></path>
                        <path d="M55.7365,75.7845802 L61.32,75.7845802 L61.32,70.1619847 L55.7365,70.1619847 L55.7365,75.7845802 Z M53.2365,78.3036641 L63.82,78.3036641 L63.82,67.6429008 L53.2365,67.6429008 L53.2365,78.3036641 Z" id="Fill-385" fill="#2C3E50"></path>
                        <path d="M51.6945,49.1679389 L65.363,49.1679389 L65.363,43.5403053 L51.6945,43.5403053 L51.6945,49.1679389 Z M49.1945,51.6870229 L67.863,51.6870229 L67.863,41.0212214 L49.1945,41.0212214 L49.1945,51.6870229 Z" id="Fill-386" fill="#2C3E50"></path>
                        <path d="M68.2025,75.7845802 L73.7855,75.7845802 L73.7855,70.1619847 L68.2025,70.1619847 L68.2025,75.7845802 Z M65.7025,78.3036641 L76.2855,78.3036641 L76.2855,67.6429008 L65.7025,67.6429008 L65.7025,78.3036641 Z" id="Fill-387" fill="#2C3E50"></path>
                        <path d="M43.2715,75.7845802 L48.8555,75.7845802 L48.8555,70.1619847 L43.2715,70.1619847 L43.2715,75.7845802 Z M40.7715,78.3036641 L51.3555,78.3036641 L51.3555,67.6429008 L40.7715,67.6429008 L40.7715,78.3036641 Z" id="Fill-388" fill="#2C3E50"></path>
                        <path d="M60,120 C93.137085,120 120,93.137085 120,60 C120,26.862915 93.137085,0 60,0 C26.862915,0 0,26.862915 0,60 C0,93.137085 26.862915,120 60,120 Z" id="Oval-17" stroke="#BDC3C7" stroke-width="3" stroke-linejoin="round" stroke-dasharray="95,2000"></path>
                        <path d="M60,120 C93.137085,120 120,93.137085 120,60 C120,26.862915 93.137085,0 60,0 C26.862915,0 0,26.862915 0,60 C0,93.137085 26.862915,120 60,120 Z" id="Oval-17-Copy" stroke="#BDC3C7" stroke-width="2" stroke-linejoin="round" stroke-dasharray="45,2000" transform="translate(60.000000, 60.000000) scale(-1, -1) translate(-60.000000, -60.000000) "></path>
                    </g>
                </g>
            </g>
        </g>
    </g>
</svg>